<svg width="25" height="16" viewBox="0 0 13 16" fill="none" xmlns="http://www.w3.org/2000/svg">
<path d="M6.49569 3.2C6.04429 3.2 5.658 3.0432 5.33682 2.7296C5.01509 2.41653 4.85422 2.04 4.85422 1.6C4.85422 1.16 5.01509 0.7832 5.33682 0.4696C5.658 0.156533 6.04429 0 6.49569 0C6.94709 0 7.33366 0.156533 7.65539 0.4696C7.97657 0.7832 8.13716 1.16 8.13716 1.6C8.13716 2.04 7.97657 2.41653 7.65539 2.7296C7.33366 3.0432 6.94709 3.2 6.49569 3.2ZM4.85422 16C4.62168 16 4.4269 15.9232 4.26986 15.7696C4.11228 15.6165 4.03349 15.4267 4.03349 15.2V5.42C2.93918 5.14 2.03993 4.58347 1.33574 3.7504C0.631005 2.9168 0.189724 1.96667 0.0118985 0.9C-0.0291381 0.66 0.0359733 0.449867 0.207233 0.2696C0.377945 0.0898666 0.600091 0 0.873668 0C1.06517 0 1.23288 0.0666667 1.37678 0.2C1.52013 0.333333 1.60549 0.493333 1.63285 0.68C1.78331 1.62667 2.20736 2.41653 2.90498 3.0496C3.60261 3.6832 4.45754 4 5.46977 4H7.52161C7.93197 4 8.31498 4.07333 8.67063 4.22C9.02628 4.36667 9.34774 4.58 9.63499 4.86L12.7743 7.92C12.9248 8.06667 13 8.25333 13 8.48C13 8.70667 12.9248 8.89333 12.7743 9.04C12.6238 9.18667 12.4323 9.26 12.1998 9.26C11.9672 9.26 11.7757 9.18667 11.6253 9.04L8.95789 6.44V15.2C8.95789 15.4267 8.87937 15.6165 8.72234 15.7696C8.56476 15.9232 8.3697 16 8.13716 16C7.90462 16 7.70983 15.9232 7.55279 15.7696C7.39521 15.6165 7.31642 15.4267 7.31642 15.2V11.2H5.67496V15.2C5.67496 15.4267 5.59644 15.6165 5.43941 15.7696C5.28183 15.9232 5.08676 16 4.85422 16Z" fill="black"/>
</svg>
